<svg width="47.000000" height="40.000000" viewBox="0 0 47 40" fill="none" xmlns="http://www.w3.org/2000/svg" xmlns:xlink="http://www.w3.org/1999/xlink">
	<desc>
			Created with Pixso.
	</desc>
	<defs/>
	<path id="Vector" d="M8.27 20.92L38.77 20.92C39.4 20.92 39.92 21.47 39.87 22.11C39.2 29.79 32.13 35.82 23.52 35.82C14.9 35.82 7.83 29.79 7.16 22.11C7.11 21.47 7.63 20.92 8.27 20.92Z" fill="#FF6633" fill-opacity="1.000000" fill-rule="nonzero"/>
	<path id="Vector" d="M29.02 9.44C29.36 9.44 29.7 9.29 29.92 8.99C31.04 7.51 33.15 6.59 35.44 6.59C37.74 6.59 39.85 7.51 40.97 8.99C41.34 9.49 42.05 9.59 42.55 9.21C43.05 8.83 43.14 8.11 42.76 7.61C41.21 5.54 38.47 4.31 35.44 4.31C32.41 4.31 29.68 5.54 28.12 7.61C27.74 8.11 27.84 8.83 28.34 9.21C28.54 9.37 28.78 9.44 29.02 9.44Z" fill="#414141" fill-opacity="1.000000" fill-rule="nonzero"/>
	<path id="Vector" d="M5.17 9.44C5.51 9.44 5.85 9.29 6.07 8.99C7.18 7.51 9.3 6.59 11.59 6.59C13.88 6.59 16 7.51 17.11 8.99C17.49 9.49 18.2 9.59 18.7 9.21C19.19 8.83 19.29 8.11 18.91 7.61C17.36 5.54 14.62 4.31 11.59 4.31C8.56 4.31 5.83 5.54 4.27 7.61C3.89 8.11 3.99 8.83 4.48 9.21C4.69 9.37 4.93 9.44 5.17 9.44Z" fill="#414141" fill-opacity="1.000000" fill-rule="nonzero"/>
</svg>
